<svg xmlns="http://www.w3.org/2000/svg" width="800" height="600" viewBox="0 0 800 600">
<defs>
  <radialGradient id="bg2" cx="30%" cy="50%" r="70%">
    <stop offset="0%" stop-color="#020b1a"/>
    <stop offset="100%" stop-color="#000508"/>
  </radialGradient>
  <radialGradient id="cellg" cx="40%" cy="35%" r="60%">
    <stop offset="0%" stop-color="#1a2a18" stop-opacity="0.0"/>
    <stop offset="65%" stop-color="#1a3020" stop-opacity="0.5"/>
    <stop offset="100%" stop-color="#0d1f10" stop-opacity="0.9"/>
  </radialGradient>
  <radialGradient id="nucg" cx="40%" cy="38%" r="60%">
    <stop offset="0%" stop-color="#1a1a3a"/>
    <stop offset="100%" stop-color="#080818"/>
  </radialGradient>
  <filter id="waveglow" x="-20%" y="-100%" width="140%" height="300%">
    <feGaussianBlur in="SourceGraphic" stdDeviation="2.5" result="blur"/>
    <feMerge><feMergeNode in="blur"/><feMergeNode in="SourceGraphic"/></feMerge>
  </filter>
  <filter id="cellglow" x="-30%" y="-30%" width="160%" height="160%">
    <feGaussianBlur in="SourceAlpha" stdDeviation="12" result="blur"/>
    <feFlood flood-color="#20c030" flood-opacity="0.3" result="col"/>
    <feComposite in="col" in2="blur" operator="in" result="glow"/>
    <feMerge><feMergeNode in="glow"/><feMergeNode in="SourceGraphic"/></feMerge>
  </filter>
  <filter id="nucglow" x="-60%" y="-60%" width="220%" height="220%">
    <feGaussianBlur in="SourceAlpha" stdDeviation="6" result="blur"/>
    <feFlood flood-color="#6040ff" flood-opacity="0.4" result="col"/>
    <feComposite in="col" in2="blur" operator="in" result="glow"/>
    <feMerge><feMergeNode in="glow"/><feMergeNode in="SourceGraphic"/></feMerge>
  </filter>
</defs>
<rect width="800" height="600" fill="url(#bg2)"/>
<polyline points="0.0,35.0 1.9,37.4 3.8,39.7 5.7,41.9 7.6,44.1 9.5,46.0 11.4,47.8 13.2,49.4 15.1,50.7 17.0,51.7 18.9,52.4 20.8,52.9 22.7,53.0 24.6,52.8 26.5,52.3 28.4,51.5 30.3,50.4 32.2,49.1 34.1,47.5 35.9,45.6 37.8,43.6 39.7,41.5 41.6,39.2 43.5,36.9 45.4,34.5 47.3,32.1 49.2,29.8 51.1,27.6 53.0,25.5 54.9,23.6 56.8,21.8 58.6,20.3 60.5,19.1 62.4,18.1 64.3,17.4 66.2,17.1 68.1,17.0 70.0,17.3 71.9,17.8 73.8,18.7 75.7,19.9 77.6,21.3 79.5,22.9 81.4,24.8 83.2,26.8 85.1,29.0 87.0,31.3 88.9,33.6 90.8,36.0 92.7,38.4 94.6,40.7 96.5,42.9 98.4,44.9 100.3,46.8 102.2,48.5 104.1,50.0 105.9,51.1 107.8,52.1 109.7,52.7 111.6,53.0 113.5,53.0 115.4,52.6 117.3,52.0 119.2,51.1 121.1,49.9 123.0,48.4 124.9,46.7 126.8,44.8 128.6,42.7 130.5,40.5 132.4,38.2 134.3,35.8 136.2,33.5 138.1,31.1 140.0,28.8 141.9,26.7 143.8,24.6 145.7,22.8 147.6,21.2 149.5,19.8 151.4,18.6 153.2,17.8 155.1,17.2 157.0,17.0 158.9,17.1 160.8,17.5 162.7,18.2 164.6,19.2 166.5,20.4 168.4,21.9 170.3,23.7 172.2,25.6 174.1,27.7 175.9,30.0 177.8,32.3 179.7,34.7 181.6,37.0 183.5,39.4 185.4,41.6 187.3,43.8 189.2,45.8 191.1,47.6 193.0,49.2 194.9,50.5 196.8,51.6 198.6,52.4 200.5,52.8 202.4,53.0 204.3,52.9 206.2,52.4 208.1,51.6 210.0,50.6 211.9,49.3 213.8,47.7 215.7,45.9 217.6,43.9 219.5,41.8 221.4,39.5 223.2,37.2 225.1,34.8 227.0,32.5 228.9,30.1 230.8,27.9 232.7,25.8 234.6,23.8 236.5,22.1 238.4,20.5 240.3,19.2 242.2,18.2 244.1,17.5 245.9,17.1 247.8,17.0 249.7,17.2 251.6,17.7 253.5,18.6 255.4,19.7 257.3,21.0 259.2,22.7 261.1,24.5 263.0,26.5 264.9,28.7 266.8,31.0 268.6,33.3 270.5,35.7 272.4,38.0 274.3,40.4 276.2,42.6 278.1,44.7 280.0,46.6 281.9,48.3 283.8,49.8 285.7,51.0 287.6,51.9 289.5,52.6 291.4,52.9 293.2,53.0 295.1,52.6 297.0,51.9 298.9,51.0 300.8,49.7 302.7,48.3 304.6,46.6 306.5,44.7 308.4,42.7 310.3,40.5 312.2,38.3 314.1,36.1 315.9,33.9 317.8,31.7 319.7,29.6 321.6,27.7 323.5,25.8 325.4,24.2 327.3,22.8 329.2,21.6 331.1,20.6 333.0,19.9 334.9,19.5 336.8,19.4 338.6,19.5 340.5,19.9 342.4,20.6 344.3,21.5 346.2,22.6 348.1,23.9 350.0,25.4 351.9,27.1 353.8,28.8 355.7,30.7 357.6,32.5 359.5,34.5 361.4,36.3 363.2,38.2 365.1,39.9 367.0,41.6 368.9,43.1 370.8,44.4 372.7,45.6 374.6,46.5 376.5,47.3 378.4,47.8 380.3,48.1 382.2,48.1 384.1,48.0 385.9,47.6 387.8,46.9 389.7,46.1 391.6,45.1 393.5,44.0 395.4,42.7 397.3,41.3 399.2,39.8 401.1,38.3 403.0,36.7 404.9,35.1 406.8,33.6 408.6,32.1 410.5,30.6 412.4,29.3 414.3,28.1 416.2,27.1 418.1,26.2 420.0,25.4 421.9,24.9 423.8,24.5 425.7,24.3 427.6,24.4 429.5,24.6 431.4,24.9 433.2,25.5 435.1,26.2 437.0,27.0 438.9,28.0 440.8,29.1 442.7,30.2 444.6,31.4 446.5,32.7 448.4,33.9 450.3,35.2 452.2,36.4 454.1,37.6 455.9,38.7 457.8,39.7 459.7,40.6 461.6,41.4 463.5,42.0 465.4,42.5 467.3,42.9 469.2,43.1 471.1,43.2 473.0,43.1 474.9,42.9 476.8,42.6 478.6,42.1 480.5,41.5 482.4,40.9 484.3,40.1 486.2,39.3 488.1,38.4 490.0,37.5" fill="none" stroke="#00c6ff" stroke-width="1.8" opacity="0.85" filter="url(#waveglow)"/>
<polyline points="0.0,107.4 1.9,109.6 3.8,111.6 5.7,113.5 7.6,115.1 9.5,116.5 11.4,117.6 13.2,118.5 15.1,119.0 17.0,119.2 18.9,119.2 20.8,118.8 22.7,118.1 24.6,117.1 26.5,115.8 28.4,114.3 30.3,112.6 32.2,110.6 34.1,108.5 35.9,106.3 37.8,104.0 39.7,101.6 41.6,99.2 43.5,96.9 45.4,94.6 47.3,92.5 49.2,90.5 51.1,88.7 53.0,87.1 54.9,85.7 56.8,84.7 58.6,83.9 60.5,83.4 62.4,83.3 64.3,83.4 66.2,83.9 68.1,84.6 70.0,85.7 71.9,87.0 73.8,88.6 75.7,90.3 77.6,92.3 79.5,94.5 81.4,96.7 83.2,99.0 85.1,101.4 87.0,103.8 88.9,106.1 90.8,108.4 92.7,110.5 94.6,112.4 96.5,114.2 98.4,115.7 100.3,117.0 102.2,118.0 104.1,118.7 105.9,119.1 107.8,119.2 109.7,119.0 111.6,118.5 113.5,117.7 115.4,116.6 117.3,115.2 119.2,113.6 121.1,111.7 123.0,109.7 124.9,107.6 126.8,105.3 128.6,102.9 130.5,100.6 132.4,98.2 134.3,95.9 136.2,93.7 138.1,91.6 140.0,89.7 141.9,88.0 143.8,86.5 145.7,85.3 147.6,84.3 149.5,83.7 151.4,83.3 153.2,83.3 155.1,83.6 157.0,84.1 158.9,85.0 160.8,86.2 162.7,87.6 164.6,89.3 166.5,91.2 168.4,93.2 170.3,95.4 172.2,97.7 174.1,100.1 175.9,102.4 177.8,104.8 179.7,107.1 181.6,109.3 183.5,111.3 185.4,113.2 187.3,114.9 189.2,116.3 191.1,117.5 193.0,118.4 194.9,118.9 196.8,119.2 198.6,119.2 200.5,118.8 202.4,118.2 204.3,117.2 206.2,116.0 208.1,114.5 210.0,112.8 211.9,110.9 213.8,108.8 215.7,106.6 217.6,104.3 219.5,101.9 221.4,99.6 223.2,97.2 225.1,94.9 227.0,92.8 228.9,90.8 230.8,88.9 232.7,87.3 234.6,85.9 236.5,84.8 238.4,84.0 240.3,83.5 242.2,83.3 244.1,83.4 245.9,83.8 247.8,84.5 249.7,85.5 251.6,86.8 253.5,88.3 255.4,90.1 257.3,92.0 259.2,94.1 261.1,96.4 263.0,98.7 264.9,101.1 266.8,103.5 268.6,105.8 270.5,108.0 272.4,110.2 274.3,112.2 276.2,113.9 278.1,115.5 280.0,116.8 281.9,117.9 283.8,118.6 285.7,119.1 287.6,119.2 289.5,119.1 291.4,118.6 293.2,117.8 295.1,116.7 297.0,115.3 298.9,113.6 300.8,111.8 302.7,109.8 304.6,107.7 306.5,105.5 308.4,103.2 310.3,100.9 312.2,98.7 314.1,96.5 315.9,94.5 317.8,92.6 319.7,90.8 321.6,89.3 323.5,88.0 325.4,86.9 327.3,86.1 329.2,85.6 331.1,85.4 333.0,85.4 334.9,85.7 336.8,86.3 338.6,87.1 340.5,88.2 342.4,89.5 344.3,90.9 346.2,92.5 348.1,94.3 350.0,96.1 351.9,98.1 353.8,100.0 355.7,101.9 357.6,103.8 359.5,105.7 361.4,107.4 363.2,109.0 365.1,110.4 367.0,111.7 368.9,112.7 370.8,113.5 372.7,114.2 374.6,114.5 376.5,114.7 378.4,114.6 380.3,114.2 382.2,113.7 384.1,112.9 385.9,112.0 387.8,110.9 389.7,109.6 391.6,108.2 393.5,106.7 395.4,105.2 397.3,103.6 399.2,101.9 401.1,100.3 403.0,98.8 404.9,97.3 406.8,95.9 408.6,94.6 410.5,93.5 412.4,92.5 414.3,91.7 416.2,91.1 418.1,90.6 420.0,90.4 421.9,90.3 423.8,90.4 425.7,90.8 427.6,91.3 429.5,91.9 431.4,92.7 433.2,93.7 435.1,94.8 437.0,95.9 438.9,97.1 440.8,98.4 442.7,99.7 444.6,101.0 446.5,102.2 448.4,103.5 450.3,104.6 452.2,105.7 454.1,106.7 455.9,107.5 457.8,108.3 459.7,108.8 461.6,109.3 463.5,109.6 465.4,109.7 467.3,109.7 469.2,109.5 471.1,109.2 473.0,108.8 474.9,108.2 476.8,107.6 478.6,106.8 480.5,106.0 482.4,105.1 484.3,104.1 486.2,103.2 488.1,102.2 490.0,101.3" fill="none" stroke="#7b61ff" stroke-width="1.8" opacity="0.6" filter="url(#waveglow)"/>
<polyline points="0.0,179.1 1.9,180.8 3.8,182.3 5.7,183.5 7.6,184.4 9.5,185.1 11.4,185.4 13.2,185.5 15.1,185.2 17.0,184.6 18.9,183.7 20.8,182.6 22.7,181.1 24.6,179.5 26.5,177.6 28.4,175.5 30.3,173.3 32.2,171.0 34.1,168.7 35.9,166.3 37.8,164.0 39.7,161.7 41.6,159.5 43.5,157.4 45.4,155.5 47.3,153.9 49.2,152.4 51.1,151.3 53.0,150.4 54.9,149.8 56.8,149.5 58.6,149.6 60.5,149.9 62.4,150.6 64.3,151.5 66.2,152.7 68.1,154.2 70.0,155.9 71.9,157.8 73.8,159.9 75.7,162.1 77.6,164.5 79.5,166.8 81.4,169.2 83.2,171.5 85.1,173.8 87.0,176.0 88.9,178.0 90.8,179.8 92.7,181.5 94.6,182.8 96.5,183.9 98.4,184.8 100.3,185.3 102.2,185.5 104.1,185.4 105.9,185.0 107.8,184.3 109.7,183.3 111.6,182.0 113.5,180.4 115.4,178.7 117.3,176.7 119.2,174.6 121.1,172.4 123.0,170.0 124.9,167.7 126.8,165.3 128.6,163.0 130.5,160.7 132.4,158.6 134.3,156.6 136.2,154.8 138.1,153.2 140.0,151.9 141.9,150.9 143.8,150.1 145.7,149.6 147.6,149.5 149.5,149.7 151.4,150.1 153.2,150.9 155.1,152.0 157.0,153.3 158.9,154.9 160.8,156.7 162.7,158.7 164.6,160.9 166.5,163.1 168.4,165.5 170.3,167.8 172.2,170.2 174.1,172.5 175.9,174.8 177.8,176.9 179.7,178.8 181.6,180.6 183.5,182.1 185.4,183.3 187.3,184.3 189.2,185.0 191.1,185.4 193.0,185.5 194.9,185.3 196.8,184.7 198.6,183.9 200.5,182.7 202.4,181.3 204.3,179.7 206.2,177.9 208.1,175.8 210.0,173.7 211.9,171.4 213.8,169.0 215.7,166.7 217.6,164.3 219.5,162.0 221.4,159.8 223.2,157.7 225.1,155.8 227.0,154.1 228.9,152.6 230.8,151.4 232.7,150.5 234.6,149.9 236.5,149.5 238.4,149.5 240.3,149.8 242.2,150.4 244.1,151.4 245.9,152.5 247.8,154.0 249.7,155.7 251.6,157.6 253.5,159.6 255.4,161.8 257.3,164.1 259.2,166.5 261.1,168.9 263.0,171.2 264.9,173.5 266.8,175.7 268.6,177.7 270.5,179.6 272.4,181.2 274.3,182.6 276.2,183.8 278.1,184.7 280.0,185.2 281.9,185.5 283.8,185.4 285.7,185.1 287.6,184.4 289.5,183.4 291.4,182.2 293.2,180.7 295.1,178.9 297.0,176.9 298.9,174.8 300.8,172.6 302.7,170.3 304.6,168.0 306.5,165.7 308.4,163.5 310.3,161.3 312.2,159.3 314.1,157.5 315.9,155.9 317.8,154.5 319.7,153.3 321.6,152.4 323.5,151.8 325.4,151.4 327.3,151.3 329.2,151.6 331.1,152.0 333.0,152.8 334.9,153.8 336.8,155.0 338.6,156.4 340.5,158.0 342.4,159.8 344.3,161.6 346.2,163.6 348.1,165.5 350.0,167.5 351.9,169.5 353.8,171.3 355.7,173.1 357.6,174.8 359.5,176.3 361.4,177.7 363.2,178.8 365.1,179.8 367.0,180.5 368.9,180.9 370.8,181.2 372.7,181.2 374.6,180.9 376.5,180.4 378.4,179.7 380.3,178.8 382.2,177.8 384.1,176.5 385.9,175.1 387.8,173.7 389.7,172.1 391.6,170.4 393.5,168.8 395.4,167.1 397.3,165.5 399.2,164.0 401.1,162.5 403.0,161.2 404.9,159.9 406.8,158.9 408.6,158.0 410.5,157.3 412.4,156.7 414.3,156.4 416.2,156.3 418.1,156.3 420.0,156.6 421.9,157.1 423.8,157.7 425.7,158.5 427.6,159.4 429.5,160.4 431.4,161.6 433.2,162.8 435.1,164.1 437.0,165.4 438.9,166.7 440.8,168.1 442.7,169.3 444.6,170.6 446.5,171.7 448.4,172.7 450.3,173.7 452.2,174.5 454.1,175.1 455.9,175.6 457.8,176.0 459.7,176.2 461.6,176.2 463.5,176.1 465.4,175.9 467.3,175.5 469.2,175.0 471.1,174.3 473.0,173.6 474.9,172.7 476.8,171.8 478.6,170.9 480.5,169.9 482.4,168.9 484.3,167.9 486.2,166.9 488.1,165.9 490.0,165.0" fill="none" stroke="#00c6ff" stroke-width="1.8" opacity="0.85" filter="url(#waveglow)"/>
<polyline points="0.0,249.3 1.9,250.4 3.8,251.1 5.7,251.6 7.6,251.7 9.5,251.6 11.4,251.1 13.2,250.3 15.1,249.3 17.0,247.9 18.9,246.3 20.8,244.5 22.7,242.5 24.6,240.4 26.5,238.1 28.4,235.8 30.3,233.4 32.2,231.0 34.1,228.7 35.9,226.5 37.8,224.4 39.7,222.4 41.6,220.7 43.5,219.2 45.4,217.9 47.3,216.9 49.2,216.2 51.1,215.8 53.0,215.8 54.9,216.0 56.8,216.5 58.6,217.4 60.5,218.5 62.4,219.9 64.3,221.5 66.2,223.4 68.1,225.4 70.0,227.6 71.9,229.9 73.8,232.2 75.7,234.6 77.6,237.0 79.5,239.3 81.4,241.5 83.2,243.5 85.1,245.4 87.0,247.1 88.9,248.6 90.8,249.8 92.7,250.7 94.6,251.4 96.5,251.7 98.4,251.7 100.3,251.4 102.2,250.8 104.1,249.9 105.9,248.7 107.8,247.3 109.7,245.6 111.6,243.7 113.5,241.6 115.4,239.4 117.3,237.1 119.2,234.8 121.1,232.4 123.0,230.0 124.9,227.8 126.8,225.6 128.6,223.5 130.5,221.7 132.4,220.0 134.3,218.6 136.2,217.5 138.1,216.6 140.0,216.0 141.9,215.8 143.8,215.8 145.7,216.2 147.6,216.9 149.5,217.8 151.4,219.1 153.2,220.6 155.1,222.3 157.0,224.2 158.9,226.3 160.8,228.6 162.7,230.9 164.6,233.2 166.5,235.6 168.4,238.0 170.3,240.2 172.2,242.4 174.1,244.4 175.9,246.2 177.8,247.8 179.7,249.2 181.6,250.3 183.5,251.1 185.4,251.6 187.3,251.7 189.2,251.6 191.1,251.2 193.0,250.5 194.9,249.4 196.8,248.1 198.6,246.6 200.5,244.8 202.4,242.8 204.3,240.7 206.2,238.4 208.1,236.1 210.0,233.7 211.9,231.4 213.8,229.1 215.7,226.8 217.6,224.7 219.5,222.7 221.4,220.9 223.2,219.4 225.1,218.1 227.0,217.0 228.9,216.3 230.8,215.9 232.7,215.8 234.6,215.9 236.5,216.4 238.4,217.2 240.3,218.3 242.2,219.7 244.1,221.3 245.9,223.1 247.8,225.1 249.7,227.3 251.6,229.5 253.5,231.9 255.4,234.3 257.3,236.6 259.2,238.9 261.1,241.2 263.0,243.3 264.9,245.2 266.8,246.9 268.6,248.4 270.5,249.7 272.4,250.6 274.3,251.3 276.2,251.7 278.1,251.7 280.0,251.5 281.9,250.9 283.8,250.0 285.7,248.9 287.6,247.5 289.5,245.8 291.4,244.0 293.2,241.9 295.1,239.7 297.0,237.4 298.9,235.1 300.8,232.8 302.7,230.5 304.6,228.3 306.5,226.2 308.4,224.2 310.3,222.5 312.2,221.0 314.1,219.7 315.9,218.7 317.8,217.9 319.7,217.5 321.6,217.3 323.5,217.4 325.4,217.8 327.3,218.5 329.2,219.4 331.1,220.6 333.0,221.9 334.9,223.5 336.8,225.2 338.6,227.1 340.5,229.0 342.4,231.0 344.3,233.0 346.2,235.0 348.1,237.0 350.0,238.9 351.9,240.6 353.8,242.2 355.7,243.7 357.6,244.9 359.5,245.9 361.4,246.7 363.2,247.3 365.1,247.6 367.0,247.7 368.9,247.6 370.8,247.2 372.7,246.5 374.6,245.7 376.5,244.6 378.4,243.4 380.3,242.1 382.2,240.6 384.1,239.0 385.9,237.4 387.8,235.7 389.7,234.0 391.6,232.3 393.5,230.7 395.4,229.2 397.3,227.7 399.2,226.4 401.1,225.3 403.0,224.3 404.9,223.5 406.8,222.9 408.6,222.5 410.5,222.3 412.4,222.3 414.3,222.5 416.2,222.9 418.1,223.4 420.0,224.2 421.9,225.1 423.8,226.1 425.7,227.2 427.6,228.5 429.5,229.8 431.4,231.1 433.2,232.5 435.1,233.8 437.0,235.2 438.9,236.5 440.8,237.7 442.7,238.8 444.6,239.8 446.5,240.6 448.4,241.4 450.3,242.0 452.2,242.4 454.1,242.7 455.9,242.8 457.8,242.7 459.7,242.5 461.6,242.2 463.5,241.7 465.4,241.0 467.3,240.3 469.2,239.5 471.1,238.6 473.0,237.6 474.9,236.6 476.8,235.5 478.6,234.5 480.5,233.5 482.4,232.5 484.3,231.5 486.2,230.6 488.1,229.8 490.0,229.1" fill="none" stroke="#7b61ff" stroke-width="1.8" opacity="0.6" filter="url(#waveglow)"/>
<polyline points="0.0,317.7 1.9,318.0 3.8,317.9 5.7,317.6 7.6,316.9 9.5,315.9 11.4,314.7 13.2,313.2 15.1,311.4 17.0,309.5 18.9,307.4 20.8,305.2 22.7,302.9 24.6,300.5 26.5,298.1 28.4,295.8 30.3,293.5 32.2,291.4 34.1,289.4 35.9,287.5 37.8,285.9 39.7,284.6 41.6,283.5 43.5,282.7 45.4,282.2 47.3,282.0 49.2,282.1 51.1,282.6 53.0,283.3 54.9,284.3 56.8,285.6 58.6,287.2 60.5,289.0 62.4,290.9 64.3,293.1 66.2,295.3 68.1,297.6 70.0,300.0 71.9,302.4 73.8,304.7 75.7,306.9 77.6,309.1 79.5,311.0 81.4,312.8 83.2,314.4 85.1,315.7 87.0,316.7 88.9,317.4 90.8,317.9 92.7,318.0 94.6,317.8 96.5,317.3 98.4,316.5 100.3,315.4 102.2,314.1 104.1,312.5 105.9,310.6 107.8,308.6 109.7,306.5 111.6,304.2 113.5,301.9 115.4,299.5 117.3,297.1 119.2,294.8 121.1,292.6 123.0,290.5 124.9,288.6 126.8,286.8 128.6,285.3 130.5,284.1 132.4,283.1 134.3,282.4 136.2,282.1 138.1,282.0 140.0,282.3 141.9,282.8 143.8,283.7 145.7,284.9 147.6,286.3 149.5,287.9 151.4,289.8 153.2,291.8 155.1,294.0 157.0,296.3 158.9,298.6 160.8,301.0 162.7,303.4 164.6,305.7 166.5,307.9 168.4,309.9 170.3,311.8 172.2,313.5 174.1,315.0 175.9,316.1 177.8,317.1 179.7,317.7 181.6,318.0 183.5,318.0 185.4,317.6 187.3,317.0 189.2,316.1 191.1,314.9 193.0,313.4 194.9,311.7 196.8,309.8 198.6,307.7 200.5,305.5 202.4,303.2 204.3,300.8 206.2,298.5 208.1,296.1 210.0,293.8 211.9,291.7 213.8,289.6 215.7,287.8 217.6,286.2 219.5,284.8 221.4,283.6 223.2,282.8 225.1,282.2 227.0,282.0 228.9,282.1 230.8,282.5 232.7,283.2 234.6,284.2 236.5,285.4 238.4,286.9 240.3,288.7 242.2,290.6 244.1,292.7 245.9,295.0 247.8,297.3 249.7,299.7 251.6,302.0 253.5,304.4 255.4,306.6 257.3,308.8 259.2,310.8 261.1,312.6 263.0,314.2 264.9,315.5 266.8,316.6 268.6,317.4 270.5,317.8 272.4,318.0 274.3,317.9 276.2,317.4 278.1,316.6 280.0,315.6 281.9,314.3 283.8,312.7 285.7,310.9 287.6,308.9 289.5,306.8 291.4,304.5 293.2,302.2 295.1,299.8 297.0,297.5 298.9,295.2 300.8,293.0 302.7,291.0 304.6,289.2 306.5,287.6 308.4,286.2 310.3,285.0 312.2,284.2 314.1,283.6 315.9,283.3 317.8,283.3 319.7,283.6 321.6,284.2 323.5,285.0 325.4,286.1 327.3,287.5 329.2,289.0 331.1,290.7 333.0,292.5 334.9,294.5 336.8,296.5 338.6,298.5 340.5,300.6 342.4,302.6 344.3,304.5 346.2,306.4 348.1,308.1 350.0,309.6 351.9,310.9 353.8,312.1 355.7,313.0 357.6,313.6 359.5,314.1 361.4,314.2 363.2,314.2 365.1,313.8 367.0,313.3 368.9,312.5 370.8,311.5 372.7,310.3 374.6,309.0 376.5,307.5 378.4,306.0 380.3,304.3 382.2,302.6 384.1,300.9 385.9,299.1 387.8,297.5 389.7,295.9 391.6,294.4 393.5,293.0 395.4,291.8 397.3,290.7 399.2,289.8 401.1,289.1 403.0,288.6 404.9,288.3 406.8,288.2 408.6,288.4 410.5,288.7 412.4,289.2 414.3,289.9 416.2,290.8 418.1,291.8 420.0,292.9 421.9,294.1 423.8,295.4 425.7,296.8 427.6,298.2 429.5,299.6 431.4,301.0 433.2,302.3 435.1,303.6 437.0,304.8 438.9,305.8 440.8,306.8 442.7,307.6 444.6,308.3 446.5,308.8 448.4,309.1 450.3,309.3 452.2,309.3 454.1,309.1 455.9,308.8 457.8,308.4 459.7,307.8 461.6,307.0 463.5,306.2 465.4,305.3 467.3,304.3 469.2,303.3 471.1,302.2 473.0,301.1 474.9,300.1 476.8,299.0 478.6,298.0 480.5,297.1 482.4,296.2 484.3,295.4 486.2,294.8 488.1,294.2 490.0,293.8" fill="none" stroke="#00c6ff" stroke-width="1.8" opacity="0.85" filter="url(#waveglow)"/>
<polyline points="0.0,384.0 1.9,383.4 3.8,382.5 5.7,381.4 7.6,380.0 9.5,378.3 11.4,376.5 13.2,374.4 15.1,372.2 17.0,370.0 18.9,367.6 20.8,365.2 22.7,362.9 24.6,360.6 26.5,358.4 28.4,356.3 30.3,354.4 32.2,352.7 34.1,351.3 35.9,350.1 37.8,349.2 39.7,348.6 41.6,348.3 43.5,348.3 45.4,348.6 47.3,349.3 49.2,350.2 51.1,351.4 53.0,352.9 54.9,354.6 56.8,356.5 58.6,358.5 60.5,360.7 62.4,363.0 64.3,365.4 66.2,367.8 68.1,370.1 70.0,372.4 71.9,374.6 73.8,376.6 75.7,378.5 77.6,380.1 79.5,381.5 81.4,382.6 83.2,383.5 85.1,384.0 87.0,384.2 88.9,384.2 90.8,383.8 92.7,383.1 94.6,382.1 96.5,380.8 98.4,379.3 100.3,377.6 102.2,375.6 104.1,373.5 105.9,371.3 107.8,369.0 109.7,366.6 111.6,364.2 113.5,361.9 115.4,359.6 117.3,357.5 119.2,355.5 121.1,353.7 123.0,352.1 124.9,350.7 126.8,349.7 128.6,348.9 130.5,348.4 132.4,348.3 134.3,348.4 136.2,348.9 138.1,349.6 140.0,350.7 141.9,352.0 143.8,353.6 145.7,355.3 147.6,357.3 149.5,359.5 151.4,361.7 153.2,364.0 155.1,366.4 157.0,368.8 158.9,371.1 160.8,373.4 162.7,375.5 164.6,377.4 166.5,379.2 168.4,380.7 170.3,382.0 172.2,383.0 174.1,383.7 175.9,384.1 177.8,384.2 179.7,384.0 181.6,383.5 183.5,382.7 185.4,381.6 187.3,380.2 189.2,378.6 191.1,376.7 193.0,374.7 194.9,372.6 196.8,370.3 198.6,367.9 200.5,365.6 202.4,363.2 204.3,360.9 206.2,358.7 208.1,356.6 210.0,354.7 211.9,353.0 213.8,351.5 215.7,350.3 217.6,349.3 219.5,348.7 221.4,348.3 223.2,348.3 225.1,348.6 227.0,349.1 228.9,350.0 230.8,351.2 232.7,352.6 234.6,354.3 236.5,356.2 238.4,358.2 240.3,360.4 242.2,362.7 244.1,365.1 245.9,367.4 247.8,369.8 249.7,372.1 251.6,374.3 253.5,376.3 255.4,378.2 257.3,379.9 259.2,381.3 261.1,382.5 263.0,383.4 264.9,383.9 266.8,384.2 268.6,384.2 270.5,383.8 272.4,383.2 274.3,382.2 276.2,381.0 278.1,379.5 280.0,377.8 281.9,375.9 283.8,373.8 285.7,371.6 287.6,369.3 289.5,366.9 291.4,364.6 293.2,362.2 295.1,360.0 297.0,357.8 298.9,355.9 300.8,354.2 302.7,352.7 304.6,351.4 306.5,350.4 308.4,349.7 310.3,349.4 312.2,349.3 314.1,349.5 315.9,349.9 317.8,350.7 319.7,351.7 321.6,353.0 323.5,354.5 325.4,356.1 327.3,358.0 329.2,359.9 331.1,361.9 333.0,364.0 334.9,366.1 336.8,368.2 338.6,370.2 340.5,372.1 342.4,373.9 344.3,375.5 346.2,376.9 348.1,378.2 350.0,379.2 351.9,379.9 353.8,380.5 355.7,380.7 357.6,380.7 359.5,380.5 361.4,380.0 363.2,379.3 365.1,378.4 367.0,377.2 368.9,375.9 370.8,374.5 372.7,372.9 374.6,371.2 376.5,369.5 378.4,367.8 380.3,366.0 382.2,364.3 384.1,362.6 385.9,361.0 387.8,359.6 389.7,358.3 391.6,357.1 393.5,356.1 395.4,355.3 397.3,354.7 399.2,354.4 401.1,354.2 403.0,354.3 404.9,354.5 406.8,355.0 408.6,355.6 410.5,356.4 412.4,357.4 414.3,358.5 416.2,359.8 418.1,361.1 420.0,362.5 421.9,363.9 423.8,365.3 425.7,366.8 427.6,368.1 429.5,369.5 431.4,370.7 433.2,371.9 435.1,372.9 437.0,373.8 438.9,374.5 440.8,375.1 442.7,375.5 444.6,375.8 446.5,375.8 448.4,375.7 450.3,375.5 452.2,375.0 454.1,374.5 455.9,373.8 457.8,373.0 459.7,372.1 461.6,371.1 463.5,370.0 465.4,368.9 467.3,367.8 469.2,366.7 471.1,365.6 473.0,364.6 474.9,363.6 476.8,362.6 478.6,361.8 480.5,361.1 482.4,360.4 484.3,359.9 486.2,359.5 488.1,359.3 490.0,359.2" fill="none" stroke="#7b61ff" stroke-width="1.8" opacity="0.6" filter="url(#waveglow)"/>
<polyline points="0.0,448.1 1.9,446.8 3.8,445.2 5.7,443.4 7.6,441.4 9.5,439.3 11.4,437.0 13.2,434.7 15.1,432.3 17.0,430.0 18.9,427.6 20.8,425.4 22.7,423.3 24.6,421.3 26.5,419.6 28.4,418.0 30.3,416.7 32.2,415.7 34.1,415.0 35.9,414.6 37.8,414.5 39.7,414.7 41.6,415.2 43.5,416.1 45.4,417.2 47.3,418.5 49.2,420.2 51.1,422.0 53.0,424.0 54.9,426.2 56.8,428.5 58.6,430.8 60.5,433.2 62.4,435.5 64.3,437.9 66.2,440.1 68.1,442.2 70.0,444.1 71.9,445.8 73.8,447.3 75.7,448.5 77.6,449.4 79.5,450.1 81.4,450.4 83.2,450.5 85.1,450.2 87.0,449.6 88.9,448.7 90.8,447.6 92.7,446.1 94.6,444.5 96.5,442.6 98.4,440.5 100.3,438.3 102.2,436.0 104.1,433.7 105.9,431.3 107.8,429.0 109.7,426.7 111.6,424.5 113.5,422.4 115.4,420.5 117.3,418.9 119.2,417.4 121.1,416.3 123.0,415.4 124.9,414.8 126.8,414.5 128.6,414.6 130.5,414.9 132.4,415.6 134.3,416.5 136.2,417.7 138.1,419.2 140.0,420.9 141.9,422.8 143.8,424.9 145.7,427.1 147.6,429.5 149.5,431.8 151.4,434.2 153.2,436.5 155.1,438.8 157.0,441.0 158.9,443.0 160.8,444.8 162.7,446.5 164.6,447.8 166.5,448.9 168.4,449.8 170.3,450.3 172.2,450.5 174.1,450.4 175.9,450.0 177.8,449.3 179.7,448.3 181.6,447.0 183.5,445.4 185.4,443.7 187.3,441.7 189.2,439.6 191.1,437.4 193.0,435.0 194.9,432.7 196.8,430.3 198.6,428.0 200.5,425.7 202.4,423.6 204.3,421.6 206.2,419.8 208.1,418.2 210.0,416.9 211.9,415.9 213.8,415.1 215.7,414.6 217.6,414.5 219.5,414.7 221.4,415.1 223.2,415.9 225.1,417.0 227.0,418.3 228.9,419.9 230.8,421.7 232.7,423.7 234.6,425.9 236.5,428.1 238.4,430.5 240.3,432.8 242.2,435.2 244.1,437.5 245.9,439.8 247.8,441.9 249.7,443.8 251.6,445.6 253.5,447.1 255.4,448.3 257.3,449.3 259.2,450.0 261.1,450.4 263.0,450.5 264.9,450.3 266.8,449.7 268.6,448.9 270.5,447.7 272.4,446.3 274.3,444.7 276.2,442.9 278.1,440.8 280.0,438.7 281.9,436.4 283.8,434.0 285.7,431.7 287.6,429.3 289.5,427.0 291.4,424.8 293.2,422.7 295.1,420.8 297.0,419.2 298.9,417.9 300.8,416.8 302.7,416.0 304.6,415.4 306.5,415.2 308.4,415.3 310.3,415.7 312.2,416.4 314.1,417.3 315.9,418.5 317.8,420.0 319.7,421.6 321.6,423.4 323.5,425.3 325.4,427.4 327.3,429.5 329.2,431.6 331.1,433.7 333.0,435.8 334.9,437.7 336.8,439.6 338.6,441.3 340.5,442.9 342.4,444.2 344.3,445.3 346.2,446.2 348.1,446.8 350.0,447.2 351.9,447.3 353.8,447.1 355.7,446.7 357.6,446.1 359.5,445.2 361.4,444.1 363.2,442.9 365.1,441.4 367.0,439.9 368.9,438.2 370.8,436.5 372.7,434.7 374.6,432.9 376.5,431.1 378.4,429.4 380.3,427.7 382.2,426.2 384.1,424.8 385.9,423.6 387.8,422.5 389.7,421.6 391.6,420.9 393.5,420.5 395.4,420.2 397.3,420.2 399.2,420.4 401.1,420.8 403.0,421.4 404.9,422.1 406.8,423.1 408.6,424.2 410.5,425.4 412.4,426.7 414.3,428.1 416.2,429.6 418.1,431.0 420.0,432.5 421.9,433.9 423.8,435.3 425.7,436.6 427.6,437.9 429.5,439.0 431.4,439.9 433.2,440.7 435.1,441.4 437.0,441.9 438.9,442.2 440.8,442.3 442.7,442.3 444.6,442.1 446.5,441.7 448.4,441.2 450.3,440.5 452.2,439.8 454.1,438.9 455.9,437.9 457.8,436.8 459.7,435.7 461.6,434.5 463.5,433.4 465.4,432.3 467.3,431.2 469.2,430.1 471.1,429.1 473.0,428.2 474.9,427.4 476.8,426.7 478.6,426.1 480.5,425.7 482.4,425.4 484.3,425.2 486.2,425.1 488.1,425.2 490.0,425.4" fill="none" stroke="#00c6ff" stroke-width="1.8" opacity="0.85" filter="url(#waveglow)"/>
<polyline points="0.0,510.3 1.9,508.4 3.8,506.3 5.7,504.1 7.6,501.8 9.5,499.4 11.4,497.1 13.2,494.7 15.1,492.4 17.0,490.3 18.9,488.3 20.8,486.4 22.7,484.8 24.6,483.4 26.5,482.3 28.4,481.5 30.3,481.0 32.2,480.8 34.1,480.9 35.9,481.3 37.8,482.0 39.7,483.0 41.6,484.3 43.5,485.8 45.4,487.6 47.3,489.5 49.2,491.6 51.1,493.9 53.0,496.2 54.9,498.6 56.8,501.0 58.6,503.3 60.5,505.5 62.4,507.7 64.3,509.7 66.2,511.4 68.1,513.0 70.0,514.3 71.9,515.4 73.8,516.1 75.7,516.6 77.6,516.7 79.5,516.6 81.4,516.1 83.2,515.3 85.1,514.3 87.0,512.9 88.9,511.3 90.8,509.5 92.7,507.5 94.6,505.4 96.5,503.1 98.4,500.8 100.3,498.4 102.2,496.0 104.1,493.7 105.9,491.5 107.8,489.4 109.7,487.4 111.6,485.7 113.5,484.2 115.4,482.9 117.3,481.9 119.2,481.2 121.1,480.8 123.0,480.8 124.9,481.0 126.8,481.5 128.6,482.4 130.5,483.5 132.4,484.9 134.3,486.5 136.2,488.4 138.1,490.4 140.0,492.6 141.9,494.9 143.8,497.2 145.7,499.6 147.6,502.0 149.5,504.3 151.4,506.5 153.2,508.5 155.1,510.4 157.0,512.1 158.9,513.6 160.8,514.8 162.7,515.7 164.6,516.4 166.5,516.7 168.4,516.7 170.3,516.4 172.2,515.8 174.1,514.9 175.9,513.7 177.8,512.3 179.7,510.6 181.6,508.7 183.5,506.6 185.4,504.4 187.3,502.1 189.2,499.8 191.1,497.4 193.0,495.0 194.9,492.8 196.8,490.6 198.6,488.5 200.5,486.7 202.4,485.0 204.3,483.6 206.2,482.5 208.1,481.6 210.0,481.0 211.9,480.8 213.8,480.8 215.7,481.2 217.6,481.9 219.5,482.8 221.4,484.1 223.2,485.6 225.1,487.3 227.0,489.2 228.9,491.3 230.8,493.6 232.7,495.9 234.6,498.2 236.5,500.6 238.4,503.0 240.3,505.2 242.2,507.4 244.1,509.4 245.9,511.2 247.8,512.8 249.7,514.2 251.6,515.3 253.5,516.1 255.4,516.6 257.3,516.7 259.2,516.6 261.1,516.2 263.0,515.5 264.9,514.4 266.8,513.1 268.6,511.6 270.5,509.8 272.4,507.8 274.3,505.7 276.2,503.4 278.1,501.1 280.0,498.8 281.9,496.4 283.8,494.1 285.7,491.8 287.6,489.7 289.5,487.7 291.4,485.9 293.2,484.4 295.1,483.1 297.0,482.2 298.9,481.6 300.8,481.2 302.7,481.2 304.6,481.5 306.5,482.1 308.4,483.0 310.3,484.1 312.2,485.5 314.1,487.1 315.9,488.8 317.8,490.7 319.7,492.8 321.6,494.9 323.5,497.1 325.4,499.2 327.3,501.3 329.2,503.4 331.1,505.3 333.0,507.1 334.9,508.8 336.8,510.2 338.6,511.4 340.5,512.4 342.4,513.1 344.3,513.6 346.2,513.8 348.1,513.8 350.0,513.4 351.9,512.9 353.8,512.1 355.7,511.0 357.6,509.8 359.5,508.4 361.4,506.9 363.2,505.2 365.1,503.4 367.0,501.6 368.9,499.8 370.8,498.0 372.7,496.2 374.6,494.5 376.5,492.9 378.4,491.4 380.3,490.0 382.2,488.9 384.1,487.9 385.9,487.1 387.8,486.6 389.7,486.3 391.6,486.2 393.5,486.3 395.4,486.6 397.3,487.1 399.2,487.9 401.1,488.8 403.0,489.8 404.9,491.0 406.8,492.3 408.6,493.7 410.5,495.2 412.4,496.7 414.3,498.2 416.2,499.7 418.1,501.2 420.0,502.5 421.9,503.8 423.8,505.0 425.7,506.0 427.6,506.9 429.5,507.7 431.4,508.2 433.2,508.6 435.1,508.8 437.0,508.9 438.9,508.7 440.8,508.4 442.7,507.9 444.6,507.3 446.5,506.5 448.4,505.6 450.3,504.6 452.2,503.6 454.1,502.5 455.9,501.3 457.8,500.1 459.7,498.9 461.6,497.8 463.5,496.6 465.4,495.6 467.3,494.6 469.2,493.8 471.1,493.0 473.0,492.3 474.9,491.8 476.8,491.4 478.6,491.2 480.5,491.1 482.4,491.1 484.3,491.3 486.2,491.6 488.1,492.0 490.0,492.5" fill="none" stroke="#7b61ff" stroke-width="1.8" opacity="0.6" filter="url(#waveglow)"/>
<polyline points="0.0,571.2 1.9,568.9 3.8,566.5 5.7,564.2 7.6,561.8 9.5,559.5 11.4,557.3 13.2,555.2 15.1,553.3 17.0,551.6 18.9,550.1 20.8,548.9 22.7,548.0 24.6,547.4 26.5,547.0 28.4,547.0 30.3,547.3 32.2,547.9 34.1,548.9 35.9,550.0 37.8,551.5 39.7,553.2 41.6,555.1 43.5,557.1 45.4,559.3 47.3,561.6 49.2,564.0 51.1,566.4 53.0,568.7 54.9,571.0 56.8,573.2 58.6,575.2 60.5,577.1 62.4,578.7 64.3,580.1 66.2,581.3 68.1,582.2 70.0,582.7 71.9,583.0 73.8,582.9 75.7,582.6 77.6,581.9 79.5,580.9 81.4,579.7 83.2,578.2 85.1,576.4 87.0,574.5 88.9,572.4 90.8,570.2 92.7,567.9 94.6,565.5 96.5,563.1 98.4,560.8 100.3,558.5 102.2,556.4 104.1,554.4 105.9,552.5 107.8,550.9 109.7,549.6 111.6,548.5 113.5,547.7 115.4,547.2 117.3,547.0 119.2,547.1 121.1,547.6 123.0,548.3 124.9,549.3 126.8,550.6 128.6,552.2 130.5,554.0 132.4,555.9 134.3,558.1 136.2,560.3 138.1,562.6 140.0,565.0 141.9,567.4 143.8,569.7 145.7,571.9 147.6,574.1 149.5,576.0 151.4,577.8 153.2,579.4 155.1,580.7 157.0,581.7 158.9,582.4 160.8,582.9 162.7,583.0 164.6,582.8 166.5,582.3 168.4,581.5 170.3,580.4 172.2,579.1 174.1,577.5 175.9,575.6 177.8,573.6 179.7,571.5 181.6,569.2 183.5,566.9 185.4,564.5 187.3,562.1 189.2,559.8 191.1,557.6 193.0,555.5 194.9,553.6 196.8,551.8 198.6,550.3 200.5,549.1 202.4,548.1 204.3,547.4 206.2,547.1 208.1,547.0 210.0,547.3 211.9,547.8 213.8,548.7 215.7,549.9 217.6,551.3 219.5,552.9 221.4,554.8 223.2,556.8 225.1,559.0 227.0,561.3 228.9,563.6 230.8,566.0 232.7,568.4 234.6,570.7 236.5,572.9 238.4,574.9 240.3,576.8 242.2,578.5 244.1,580.0 245.9,581.1 247.8,582.1 249.7,582.7 251.6,583.0 253.5,583.0 255.4,582.6 257.3,582.0 259.2,581.1 261.1,579.9 263.0,578.4 264.9,576.7 266.8,574.8 268.6,572.7 270.5,570.5 272.4,568.2 274.3,565.8 276.2,563.5 278.1,561.1 280.0,558.8 281.9,556.7 283.8,554.6 285.7,552.8 287.6,551.2 289.5,549.8 291.4,548.6 293.2,547.8 295.1,547.3 297.0,547.2 298.9,547.4 300.8,547.8 302.7,548.6 304.6,549.7 306.5,551.0 308.4,552.5 310.3,554.3 312.2,556.2 314.1,558.2 315.9,560.3 317.8,562.5 319.7,564.7 321.6,566.9 323.5,569.0 325.4,571.0 327.3,572.9 329.2,574.6 331.1,576.1 333.0,577.5 334.9,578.6 336.8,579.4 338.6,580.0 340.5,580.3 342.4,580.3 344.3,580.1 346.2,579.6 348.1,578.9 350.0,577.9 351.9,576.7 353.8,575.4 355.7,573.8 357.6,572.2 359.5,570.4 361.4,568.6 363.2,566.7 365.1,564.9 367.0,563.0 368.9,561.3 370.8,559.6 372.7,558.0 374.6,556.6 376.5,555.3 378.4,554.3 380.3,553.4 382.2,552.8 384.1,552.3 385.9,552.1 387.8,552.2 389.7,552.4 391.6,552.9 393.5,553.6 395.4,554.4 397.3,555.5 399.2,556.6 401.1,557.9 403.0,559.3 404.9,560.8 406.8,562.4 408.6,563.9 410.5,565.4 412.4,566.9 414.3,568.4 416.2,569.7 418.1,571.0 420.0,572.1 421.9,573.1 423.8,573.9 425.7,574.5 427.6,575.0 429.5,575.3 431.4,575.4 433.2,575.3 435.1,575.1 437.0,574.6 438.9,574.0 440.8,573.3 442.7,572.4 444.6,571.4 446.5,570.4 448.4,569.2 450.3,568.0 452.2,566.8 454.1,565.6 455.9,564.4 457.8,563.2 459.7,562.1 461.6,561.1 463.5,560.2 465.4,559.3 467.3,558.6 469.2,558.0 471.1,557.6 473.0,557.3 474.9,557.1 476.8,557.1 478.6,557.2 480.5,557.5 482.4,557.8 484.3,558.3 486.2,558.9 488.1,559.6 490.0,560.4" fill="none" stroke="#00c6ff" stroke-width="1.8" opacity="0.85" filter="url(#waveglow)"/>
<text x="20" y="272" font-size="22" fill="#00c6ff" font-family="monospace" opacity="0.6" font-weight="bold">THz</text>
<text x="20" y="292" font-size="12" fill="#4488aa" font-family="monospace" opacity="0.7">0.1 – 10 THz</text>
<polygon points="685.8,300.0 711.6,327.7 687.5,347.0 673.9,366.9 676.4,408.4 631.8,386.8 616.5,415.9 590.0,425.9 565.3,408.0 544.9,393.7 509.9,400.4 502.3,370.0 496.3,345.1 465.1,328.5 475.3,300.0 498.0,279.0 474.2,244.2 501.1,229.1 516.8,208.2 536.1,188.0 568.1,204.2 590.0,184.5 619.1,172.4 636.1,204.3 664.8,206.2 692.2,218.5 684.7,254.4 692.5,276.6" fill="url(#cellg)" stroke="#40a050" stroke-width="1.8" filter="url(#cellglow)" opacity="0.88"/>
<circle cx="708.7" cy="317.9" r="4" fill="#60c070" opacity="0.7"/>
<circle cx="689.1" cy="367.6" r="4" fill="#60c070" opacity="0.7"/>
<circle cx="650.0" cy="403.9" r="4" fill="#60c070" opacity="0.7"/>
<circle cx="598.9" cy="419.7" r="4" fill="#60c070" opacity="0.7"/>
<circle cx="546.1" cy="411.7" r="4" fill="#60c070" opacity="0.7"/>
<circle cx="502.0" cy="381.6" r="4" fill="#60c070" opacity="0.7"/>
<circle cx="475.3" cy="335.3" r="4" fill="#60c070" opacity="0.7"/>
<circle cx="471.3" cy="282.1" r="4" fill="#60c070" opacity="0.7"/>
<circle cx="490.9" cy="232.4" r="4" fill="#60c070" opacity="0.7"/>
<circle cx="530.0" cy="196.1" r="4" fill="#60c070" opacity="0.7"/>
<circle cx="581.1" cy="180.3" r="4" fill="#60c070" opacity="0.7"/>
<circle cx="633.9" cy="188.3" r="4" fill="#60c070" opacity="0.7"/>
<circle cx="678.0" cy="218.4" r="4" fill="#60c070" opacity="0.7"/>
<circle cx="704.7" cy="264.7" r="4" fill="#60c070" opacity="0.7"/>
<ellipse cx="575" cy="310" rx="38" ry="32" fill="url(#nucg)" stroke="#5050c0" stroke-width="1.5" filter="url(#nucglow)" opacity="0.9"/>
<circle cx="569" cy="306" r="10" fill="#2a2060" opacity="0.8"/>
<ellipse cx="635" cy="260" rx="14" ry="7" fill="#1e3a20" stroke="#30a040" stroke-width="1" transform="rotate(23,635,260)" opacity="0.75"/>
<ellipse cx="540" cy="335" rx="13" ry="6" fill="#1e3a20" stroke="#30a040" stroke-width="1" transform="rotate(40,540,335)" opacity="0.75"/>
<ellipse cx="620" cy="355" rx="12" ry="6" fill="#1e3a20" stroke="#30a040" stroke-width="1" transform="rotate(63,620,355)" opacity="0.75"/>
<ellipse cx="555" cy="250" rx="11" ry="6" fill="#1e3a20" stroke="#30a040" stroke-width="1" transform="rotate(11,555,250)" opacity="0.75"/>
<line x1="502.0" y1="231.0" x2="537.9" y2="279.0" stroke="#00ffe0" stroke-width="1.2" opacity="0.35"/>
<line x1="542.8" y1="256.0" x2="553.0" y2="315.1" stroke="#00ffe0" stroke-width="1.2" opacity="0.35"/>
<line x1="595.0" y1="281.0" x2="577.3" y2="338.3" stroke="#00ffe0" stroke-width="1.2" opacity="0.35"/>
<line x1="647.2" y1="306.0" x2="605.4" y2="349.0" stroke="#00ffe0" stroke-width="1.2" opacity="0.35"/>
<line x1="688.0" y1="331.0" x2="631.2" y2="350.3" stroke="#00ffe0" stroke-width="1.2" opacity="0.35"/>
<text x="635" y="578" font-size="10" fill="#4488aa" font-family="monospace" opacity="0.65">Cancer Cell Model</text>
</svg>